# xmcd
#
# Track frame offsets: 
#        182
#        11775
#        22310
#        40722
#        54695
#        87105
#        105447
#        116317
#        129247
#        138697
#        157350
#        181415
#        204580
#        222455
#        235710
#
# Disc length: 3479 seconds
#
# Revision: 8
# Processed by: cddbd v1.5.2PL0 Copyright (c) Steve Scherf et al.
# Submitted via: ExactAudioCopyFreeDBPlugin 1.0
#
DISCID=d40d950f
DTITLE=John Lee Hooker - The Ultimate Collection 1948-1990 [CD 2)
DYEAR=1991
DGENRE=Blues
TTITLE0=Boom Boom
TTITLE1=Big Legs, Tight Skirt
TTITLE2=You Know, I Know
TTITLE3=One Bourbon, One Scotch, One Beer
TTITLE4=Let's Go Out Tonight
TTITLE5=I Cover the Waterfront
TTITLE6=She's Mine (Keep Your Hands to Yourself)
TTITLE7=Back Biters and Syndicators
TTITLE8=Think Twice Before You Go
TTITLE9=Shake It Baby
TTITLE10=I'm Bad Like Jesse James
TTITLE11=Peavine
TTITLE12=Burning Hell
TTITLE13=Terraplane Blues
TTITLE14=I'm in the Mood
EXTD=
EXTT0=
EXTT1=
EXTT2=
EXTT3=
EXTT4=
EXTT5=
EXTT6=
EXTT7=
EXTT8=
EXTT9=
EXTT10=
EXTT11=
EXTT12=
EXTT13=
EXTT14=
PLAYORDER=
